<?xml version="1.0" encoding="utf-8"?>
<!-- Generator: Adobe Illustrator 23.0.1, SVG Export Plug-In . SVG Version: 6.00 Build 0)  -->
<svg version="1.1" id="Layer_1" xmlns="http://www.w3.org/2000/svg" xmlns:xlink="http://www.w3.org/1999/xlink" x="0px" y="0px"
	 viewBox="0 0 203.74 332.59" style="enable-background:new 0 0 203.74 332.59;" xml:space="preserve">
<polygon points="27.88,161.87 12.37,161.87 12.37,24.68 22.54,15.7 38.87,32.03 38.87,150.88 "/>
<polygon points="87.15,170.12 32.08,170.12 18.83,156.87 32.08,143.62 87.15,143.62 100.4,156.87 "/>
<polygon points="90.37,153.62 75.31,153.62 28.87,56.98 28.87,28.87 43.93,28.87 90.37,125.51 "/>
<polygon points="174.87,161.87 159.36,161.87 148.37,150.88 148.37,32.03 164.7,15.7 174.87,24.68 "/>
<polygon points="155.17,170.12 100.09,170.12 86.84,156.87 100.09,143.62 155.17,143.62 168.42,156.87 "/>
<polygon points="111.93,153.62 96.87,153.62 96.87,125.51 143.31,28.87 158.37,28.87 158.37,56.98 "/>
<polygon points="178.12,320.22 164.87,306.97 164.87,291.37 191.37,291.37 191.37,306.97 "/>
<rect x="164.87" y="274.87" width="26.5" height="26.5"/>
<polygon points="155.08,38.87 32.16,38.87 15.34,22.05 26.51,12.37 160.73,12.37 171.9,22.05 "/>
<polygon points="93.62,163.65 80.37,150.4 80.37,28.87 106.87,28.87 106.87,150.4 "/>
<polygon points="22.54,298.04 12.37,289.06 12.37,151.87 27.88,151.87 38.87,162.86 38.87,281.71 "/>
<polygon points="43.93,284.87 28.87,284.87 28.87,256.76 75.31,160.12 90.37,160.12 90.37,188.23 "/>
<polygon points="165.3,298.64 148.37,281.71 148.37,162.86 159.36,151.87 174.87,151.87 174.87,289.06 "/>
<polygon points="158.37,284.87 143.31,284.87 96.87,188.23 96.87,160.12 111.93,160.12 158.37,256.76 "/>
<polygon points="160.6,301.37 26.38,301.37 15.27,291.63 32.03,274.87 154.95,274.87 173.11,293.02 "/>
<polygon points="106.87,284.87 80.37,284.87 80.37,163.34 93.62,150.09 106.87,163.34 "/>
</svg>
