<?xml version="1.0" encoding="utf-8"?>
<!-- Generator: Adobe Illustrator 23.0.1, SVG Export Plug-In . SVG Version: 6.00 Build 0)  -->
<svg version="1.1" id="Layer_1" xmlns="http://www.w3.org/2000/svg" xmlns:xlink="http://www.w3.org/1999/xlink" x="0px" y="0px"
	 viewBox="0 0 202.74 331.37" style="enable-background:new 0 0 202.74 331.37;" xml:space="preserve">
<polygon points="27.17,160.87 12.37,160.87 12.37,24.38 21.44,15.31 37.87,31.73 37.87,150.17 "/>
<polygon points="86.44,169.12 31.78,169.12 19.03,156.37 31.78,143.62 86.44,143.62 99.19,156.37 "/>
<polygon points="89.37,152.62 75.13,152.62 28.87,56.37 28.87,28.87 43.11,28.87 89.37,125.12 "/>
<polygon points="173.87,160.87 159.06,160.87 148.37,150.17 148.37,31.73 164.79,15.31 173.87,24.38 "/>
<polygon points="102.7,150.62 151.56,150.62 157.31,156.37 151.56,162.12 102.7,162.12 96.95,156.37 "/>
<polygon points="154.46,169.12 99.8,169.12 87.05,156.37 99.8,143.62 154.46,143.62 167.21,156.37 "/>
<polygon points="111.11,152.62 96.87,152.62 96.87,125.12 143.13,28.87 157.37,28.87 157.37,56.37 "/>
<polygon points="177.62,319.01 164.87,306.26 164.87,291.37 190.37,291.37 190.37,306.26 "/>
<rect x="164.87" y="274.87" width="25.5" height="25.5"/>
<polygon points="154.37,37.87 31.86,37.87 14.29,20.29 26.16,12.37 160.08,12.37 171.95,20.29 "/>
<polygon points="93.12,162.44 80.37,149.69 80.37,28.87 105.87,28.87 105.87,149.69 "/>
<polygon points="21.44,297.43 12.37,288.36 12.37,151.87 27.17,151.87 37.87,162.56 37.87,281 "/>
<polygon points="43.11,283.87 28.87,283.87 28.87,256.37 75.13,160.12 89.37,160.12 89.37,187.62 "/>
<polygon points="164.79,297.43 148.37,281 148.37,162.56 159.06,151.87 173.87,151.87 173.87,288.36 "/>
<polygon points="157.37,283.87 143.13,283.87 96.87,187.62 96.87,160.12 111.11,160.12 157.37,256.37 "/>
<g>
	<polygon points="157.96,293.37 28.28,293.37 25.27,291.36 34.76,281.87 151.47,281.87 160.96,291.36 	"/>
	<polygon points="160.08,300.37 26.16,300.37 14.29,292.44 31.86,274.87 154.37,274.87 171.95,292.44 	"/>
</g>
<polygon points="105.87,283.87 80.37,283.87 80.37,163.05 93.12,150.3 105.87,163.05 "/>
</svg>
