<?xml version="1.0" encoding="utf-8"?>
<!-- Generator: Adobe Illustrator 23.0.1, SVG Export Plug-In . SVG Version: 6.00 Build 0)  -->
<svg version="1.1" id="Layer_1" xmlns="http://www.w3.org/2000/svg" xmlns:xlink="http://www.w3.org/1999/xlink" x="0px" y="0px"
	 viewBox="0 0 183.75 310.68" style="enable-background:new 0 0 183.75 310.68;" xml:space="preserve">
<polygon points="0.25,16.68 0.25,139.77 10.15,139.77 21.75,128.17 21.75,24.03 7.32,9.61 "/>
<polygon points="65.42,131.02 24.56,131.02 13.81,141.77 24.56,152.52 65.42,152.52 76.17,141.77 "/>
<polygon points="25.75,25.27 25.75,60.08 59.95,127.02 64.25,127.02 64.25,93.12 29.59,25.27 "/>
<polygon points="157.75,16.68 157.75,139.77 147.85,139.77 136.25,128.17 136.25,24.03 150.68,9.61 "/>
<polygon points="140.84,-0.23 17.16,-0.23 10.15,6.78 24.64,21.27 133.36,21.27 147.85,6.78 "/>
<polygon points="92.58,131.02 133.44,131.02 144.19,141.77 133.44,152.52 92.58,152.52 81.83,141.77 "/>
<polygon points="132.25,25.27 132.25,60.08 98.05,127.02 93.75,127.02 93.75,93.12 128.41,25.27 "/>
<polygon points="68.25,25 68.25,128.19 79,138.94 89.75,128.19 89.75,25 "/>
<polygon points="0.25,266.61 0.25,143.52 10.15,143.52 21.75,155.12 21.75,259.26 7.32,273.68 "/>
<polygon points="25.75,258.02 25.75,223.21 59.95,156.27 64.25,156.27 64.25,190.17 29.59,258.02 "/>
<polygon points="157.75,266.61 157.75,143.52 147.85,143.52 136.25,155.12 136.25,259.26 150.68,273.68 "/>
<polygon points="140.84,283.52 17.16,283.52 10.15,276.51 24.64,262.02 133.36,262.02 147.85,276.51 "/>
<polygon points="132.25,258.02 132.25,223.21 98.05,156.27 93.75,156.27 93.75,190.17 128.41,258.02 "/>
<polygon points="68.25,258.29 68.25,155.1 79,144.35 89.75,155.1 89.75,258.29 "/>
<polygon points="162.25,287.52 162.25,296.26 176.68,310.68 183.75,303.61 183.75,287.52 "/>
<rect x="162.25" y="262.02" width="21.5" height="21.5"/>
</svg>
