<?xml version="1.0" encoding="utf-8"?>
<!-- Generator: Adobe Illustrator 23.0.1, SVG Export Plug-In . SVG Version: 6.00 Build 0)  -->
<svg version="1.1" id="Layer_1" xmlns="http://www.w3.org/2000/svg" xmlns:xlink="http://www.w3.org/1999/xlink" x="0px" y="0px"
	 viewBox="0 0 203.74 332.59" style="enable-background:new 0 0 203.74 332.59;" xml:space="preserve">
<polygon points="19.87,27.78 19.87,154.37 24.77,154.37 31.37,147.77 31.37,35.13 21.94,25.71 "/>
<polygon points="84.04,151.12 35.18,151.12 29.43,156.87 35.18,162.62 84.04,162.62 89.79,156.87 "/>
<polygon points="36.37,36.37 36.37,55.27 80.03,146.12 82.87,146.12 82.87,127.22 39.21,36.37 "/>
<polygon points="167.37,27.78 167.37,154.37 162.47,154.37 155.87,147.77 155.87,35.13 165.3,25.71 "/>
<polygon points="103.2,151.12 152.06,151.12 157.81,156.87 152.06,162.62 103.2,162.62 97.45,156.87 "/>
<polygon points="150.87,36.37 150.87,55.27 107.21,146.12 104.37,146.12 104.37,127.22 148.03,36.37 "/>
<polygon points="172.37,298.87 172.37,303.86 178.12,309.61 183.87,303.86 183.87,298.87 "/>
<rect x="172.37" y="282.37" width="11.5" height="11.5"/>
<polygon points="158.46,19.87 28.78,19.87 25.77,21.88 35.26,31.37 151.98,31.37 161.47,21.88 "/>
<polygon points="87.87,36.37 87.87,147.29 93.62,153.04 99.37,147.29 99.37,36.37 "/>
<polygon points="19.87,285.96 19.87,159.37 24.77,159.37 31.37,165.97 31.37,278.61 21.94,288.03 "/>
<polygon points="36.37,277.37 36.37,258.47 80.03,167.62 82.87,167.62 82.87,186.52 39.21,277.37 "/>
<polygon points="167.37,285.96 167.37,159.37 162.47,159.37 155.87,165.97 155.87,278.61 165.3,288.03 "/>
<polygon points="150.87,277.37 150.87,258.47 107.21,167.62 104.37,167.62 104.37,186.52 148.03,277.37 "/>
<polygon points="158.46,293.87 28.78,293.87 25.77,291.86 35.26,282.37 151.98,282.37 161.47,291.86 "/>
<polygon points="87.87,277.37 87.87,166.45 93.62,160.7 99.37,166.45 99.37,277.37 "/>
</svg>
