<?xml version="1.0" encoding="utf-8"?>
<!-- Generator: Adobe Illustrator 23.0.1, SVG Export Plug-In . SVG Version: 6.00 Build 0)  -->
<svg version="1.1" id="Layer_1" xmlns="http://www.w3.org/2000/svg" xmlns:xlink="http://www.w3.org/1999/xlink" x="0px" y="0px"
	 viewBox="0 0 158 284" style="enable-background:new 0 0 158 284;" xml:space="preserve">
<polygon points="0.25,16.68 0.25,139.77 10.15,139.77 21.75,128.17 21.75,24.03 7.32,9.61 "/>
<polygon points="10.15,6.78 24.64,21.27 65.49,21.27 77,9.76 77,-0.23 17.16,-0.23 "/>
<polygon points="65.42,131.02 24.56,131.02 13.81,141.77 24.56,152.52 65.42,152.52 76.17,141.77 "/>
<polygon points="79,13.35 68.25,24.1 68.25,128.19 79,138.94 89.75,128.19 89.75,24.1 "/>
<polygon points="25.75,25.27 25.75,60.08 59.95,127.02 64.25,127.02 64.25,93.12 29.59,25.27 "/>
<polygon points="157.75,16.68 157.75,139.77 147.85,139.77 136.25,128.17 136.25,24.03 150.68,9.61 "/>
<polygon points="147.85,6.78 133.36,21.27 92.51,21.27 81,9.76 81,-0.23 140.84,-0.23 "/>
<polygon points="92.58,131.02 133.44,131.02 144.19,141.77 133.44,152.52 92.58,152.52 81.83,141.77 "/>
<polygon points="132.25,25.27 132.25,60.08 98.05,127.02 93.75,127.02 93.75,93.12 128.41,25.27 "/>
<polygon points="0.25,266.86 0.25,143.77 10.15,143.77 21.75,155.37 21.75,259.51 7.32,273.93 "/>
<polygon points="10.15,276.76 24.64,262.27 65.49,262.27 77,273.79 77,283.77 17.16,283.77 "/>
<polygon points="79,270.19 68.25,259.44 68.25,155.35 79,144.6 89.75,155.35 89.75,259.44 "/>
<polygon points="25.75,258.27 25.75,223.46 59.95,156.52 64.25,156.52 64.25,190.42 29.59,258.27 "/>
<polygon points="157.75,266.86 157.75,143.77 147.85,143.77 136.25,155.37 136.25,259.51 150.68,273.93 "/>
<polygon points="147.85,276.76 133.36,262.27 92.51,262.27 81,273.79 81,283.77 140.84,283.77 "/>
<polygon points="132.25,258.27 132.25,223.46 98.05,156.52 93.75,156.52 93.75,190.42 128.41,258.27 "/>
</svg>
