<?xml version="1.0" encoding="utf-8"?>
<!-- Generator: Adobe Illustrator 23.0.1, SVG Export Plug-In . SVG Version: 6.00 Build 0)  -->
<svg version="1.1" id="Layer_1" xmlns="http://www.w3.org/2000/svg" xmlns:xlink="http://www.w3.org/1999/xlink" x="0px" y="0px"
	 viewBox="0 0 203.74 332.59" style="enable-background:new 0 0 203.74 332.59;" xml:space="preserve">
<polygon points="14.83,31.71 14.83,154.8 24.73,154.8 36.33,143.2 36.33,39.06 21.9,24.64 "/>
<polygon points="172.33,31.71 172.33,154.8 162.43,154.8 150.83,143.2 150.83,39.06 165.26,24.64 "/>
<polygon points="155.42,14.8 31.74,14.8 24.73,21.81 39.22,36.3 147.94,36.3 162.43,21.81 "/>
<polygon points="14.83,281.64 14.83,158.55 24.73,158.55 36.33,170.15 36.33,274.29 21.9,288.71 "/>
<polygon points="172.33,281.64 172.33,158.55 162.43,158.55 150.83,170.15 150.83,274.29 165.26,288.71 "/>
<polygon points="155.42,298.55 31.74,298.55 24.73,291.54 39.22,277.05 147.94,277.05 162.43,291.54 "/>
<polygon points="176.83,302.55 176.83,311.29 191.26,325.71 198.33,318.64 198.33,302.55 "/>
<rect x="176.83" y="277.05" width="21.5" height="21.5"/>
<polygon points="148.02,146.05 39.14,146.05 28.39,156.8 39.14,167.55 148.02,167.55 158.77,156.8 "/>
<rect x="82.83" y="40.03" width="21.5" height="102.29"/>
<rect x="82.83" y="171.28" width="21.5" height="102.04"/>
</svg>
