<?xml version="1.0" encoding="utf-8"?>
<!-- Generator: Adobe Illustrator 23.0.1, SVG Export Plug-In . SVG Version: 6.00 Build 0)  -->
<svg version="1.1" id="Layer_1" xmlns="http://www.w3.org/2000/svg" xmlns:xlink="http://www.w3.org/1999/xlink" x="0px" y="0px"
	 viewBox="0 0 203.74 332.59" style="enable-background:new 0 0 203.74 332.59;" xml:space="preserve">
<polygon points="19.87,27.78 19.87,154.37 24.77,154.37 31.37,147.77 31.37,35.13 21.94,25.71 "/>
<polygon points="167.37,27.78 167.37,154.37 162.47,154.37 155.87,147.77 155.87,35.13 165.3,25.71 "/>
<polygon points="172.37,298.87 172.37,303.86 178.12,309.61 183.87,303.86 183.87,298.87 "/>
<rect x="172.37" y="282.37" width="11.5" height="11.5"/>
<polygon points="158.46,19.87 28.78,19.87 25.77,21.88 35.26,31.37 151.98,31.37 161.47,21.88 "/>
<polygon points="152.06,151.12 35.18,151.12 29.43,156.87 35.18,162.62 152.06,162.62 157.81,156.87 "/>
<polygon points="148.03,36.37 104.37,127.22 95.29,146.12 107.22,146.12 134.75,88.81 150.87,55.27 150.87,36.37 "/>
<polygon points="167.37,285.96 167.37,159.37 162.47,159.37 155.87,165.97 155.87,278.61 165.3,288.03 "/>
<polygon points="19.87,285.96 19.87,159.37 24.77,159.37 31.37,165.97 31.37,278.61 21.94,288.03 "/>
<polygon points="28.78,293.87 158.46,293.87 161.47,291.86 151.98,282.37 35.26,282.37 25.77,291.86 "/>
<polygon points="39.21,277.37 82.87,186.52 91.95,167.62 80.02,167.62 52.49,224.93 36.37,258.47 36.37,277.37 "/>
</svg>
